<svg id="Component_1_1" data-name="Component 1 – 1" xmlns="http://www.w3.org/2000/svg" width="1080.3" height="730.1" viewBox="0 0 1080.3 730.1">
  <rect id="Rectangle_6" data-name="Rectangle 6" width="1080" height="720" transform="translate(0 5.6)" fill="#fff"/>
  <g id="Group_3" data-name="Group 3" transform="translate(220 -20.4)">
    <path id="Path_1" data-name="Path 1" d="M-220,154.7c8-22.369,93.576-50.972,198.638-58.736C55.143,90.311,159.746,88.216,204.7,79.3c154.666-30.674,126-57.592,126-57.592" transform="translate(0 -1)" fill="rgba(230,161,81,0.3)"/>
    <path id="Path_2" data-name="Path 2" d="M-220,397.8c8-63.259,93.576-144.145,198.638-166.1,76.506-15.987,181.108-21.911,226.067-47.126,154.666-86.744,126-162.866,126-162.866" fill="rgba(230,161,81,0.3)"/>
    <path id="Path_3" data-name="Path 3" d="M-220,266.5c8-41.174,93.576-93.822,198.638-108.112,76.506-10.406,181.108-14.262,226.067-30.673,154.666-56.46,126-106.007,126-106.007" fill="rgba(230,161,81,0.3)"/>
    <path id="Path_4" data-name="Path 4" d="M-220,86.708C-212,75.775-126.424,61.8-21.362,58c76.506-2.763,181.108-3.787,226.067-8.145,154.666-14.992,126-28.148,126-28.148" transform="translate(0 -1.308)" fill="rgba(230,161,81,0.3)"/>
  </g>
  <g id="Group_4" data-name="Group 4" transform="translate(220 -11.4)">
    <path id="Path_5" data-name="Path 5" d="M307.5,21.708c-7.638,41.174-89.293,93.822-189.547,108.112-73,10.406-172.82,14.262-215.72,30.673C-245.355,216.953-218,266.5-218,266.5" transform="translate(552.8 475)" fill="rgba(91,230,81,0.3)"/>
    <path id="Path_6" data-name="Path 6" d="M307.5,21.708c-7.638,24.137-89.293,55-189.547,63.377-73,6.1-172.82,8.36-215.72,17.981C-245.355,136.163-218,165.208-218,165.208" transform="translate(552.8 576.292)" fill="rgba(91,230,81,0.3)"/>
    <path id="Path_7" data-name="Path 7" d="M307.5,21.708c-7.638,10.58-89.293,24.108-189.547,27.78-73,2.674-172.82,3.665-215.72,7.882C-245.355,71.877-218,84.608-218,84.608" transform="translate(552.8 656.892)" fill="rgba(91,230,81,0.3)"/>
    <path id="Path_8" data-name="Path 8" d="M307.5,21.708c-7.638,57.81-89.293,131.73-189.547,151.794-73,14.611-172.82,20.024-215.72,43.067C-245.355,295.842-218,365.408-218,365.408" transform="translate(552.8 376.092)" fill="rgba(91,230,81,0.3)"/>
  </g>
</svg>
