<svg xmlns="http://www.w3.org/2000/svg" width="16" height="16" viewBox="0 0 24 24"><defs><style>.a{fill:#0958c0;}</style></defs><path class="a" d="M13.4,10.643h2.381V7.214h3.571V4.929H15.786V1.5H13.4V4.929H9.833V7.214H13.4ZM8.643,20.929a2.288,2.288,0,1,0,2.381,2.286A2.331,2.331,0,0,0,8.643,20.929Zm11.9,0a2.288,2.288,0,1,0,2.381,2.286A2.331,2.331,0,0,0,20.548,20.929Zm-11.7-3.714.036-.137,1.071-1.863h8.869A2.387,2.387,0,0,0,20.9,14.037l4.6-8.011-2.071-1.1h-.012l-1.31,2.286-3.286,5.714H10.464l-.155-.309L7.643,7.214,6.512,4.929,5.393,2.643H1.5V4.929H3.881L8.167,13.6,6.56,16.4a2.141,2.141,0,0,0-.3,1.1,2.342,2.342,0,0,0,2.381,2.286H22.929V17.5H9.143A.3.3,0,0,1,8.845,17.214Z" transform="translate(-1.5 -1.5)"/></svg>