<svg xmlns="http://www.w3.org/2000/svg" width="19" height="17" viewBox="0 0 19 17"><defs><style>.a{fill:#267705;}</style></defs><path class="a" d="M18.525,6.906h-1.9V4.781a.507.507,0,0,0-.475-.531H15.2a.507.507,0,0,0-.475.531V6.906h-1.9a.507.507,0,0,0-.475.531V8.5a.507.507,0,0,0,.475.531h1.9v2.125a.507.507,0,0,0,.475.531h.95a.507.507,0,0,0,.475-.531V9.031h1.9A.507.507,0,0,0,19,8.5V7.438A.507.507,0,0,0,18.525,6.906ZM6.65,8.5a4.044,4.044,0,0,0,3.8-4.25A4.044,4.044,0,0,0,6.65,0a4.044,4.044,0,0,0-3.8,4.25A4.044,4.044,0,0,0,6.65,8.5ZM9.31,9.563h-.5a4.674,4.674,0,0,1-4.328,0h-.5A4.247,4.247,0,0,0,0,14.025v1.381A1.517,1.517,0,0,0,1.425,17h10.45A1.517,1.517,0,0,0,13.3,15.406V14.025A4.247,4.247,0,0,0,9.31,9.563Z"/></svg>