<svg xmlns="http://www.w3.org/2000/svg" width="22.5" height="20.5" viewBox="0 0 22.5 20.5">
  <path id="Icon_awesome-users" data-name="Icon awesome-users" d="M3.3,10.821c1.213,0,2.2-1.281,2.2-2.857S4.513,5.107,3.3,5.107,1.1,6.388,1.1,7.964,2.087,10.821,3.3,10.821Zm15.4,0c1.213,0,2.2-1.281,2.2-2.857s-.987-2.857-2.2-2.857-2.2,1.281-2.2,2.857S17.487,10.821,18.7,10.821Zm1.1,1.429H17.6a1.977,1.977,0,0,0-1.55.83,6.775,6.775,0,0,1,2.582,4.884H20.9A1.3,1.3,0,0,0,22,16.536V15.107C22,13.531,21.013,12.25,19.8,12.25Zm-8.8,0c2.128,0,3.85-2.237,3.85-5s-1.722-5-3.85-5-3.85,2.237-3.85,5S8.872,12.25,11,12.25Zm2.64,1.429h-.285A4.426,4.426,0,0,1,11,14.393a4.436,4.436,0,0,1-2.355-.714H8.36c-2.186,0-3.96,2.3-3.96,5.143v1.286A1.946,1.946,0,0,0,6.05,22.25h9.9a1.946,1.946,0,0,0,1.65-2.143V18.821C17.6,15.982,15.826,13.679,13.64,13.679Zm-7.69-.6a1.977,1.977,0,0,0-1.55-.83H2.2C.987,12.25,0,13.531,0,15.107v1.429a1.3,1.3,0,0,0,1.1,1.429H3.365A6.789,6.789,0,0,1,5.95,13.08Z" transform="translate(0.25 -2)" fill="#00ae5d" stroke="#000" stroke-width="0.5"/>
</svg>
